{
    "asset" : {
        "generator" : "Khronos glTF Blender I/O v1.4.40",
        "version" : "2.0"
    },
    "scene" : 0,
    "scenes" : [
        {
            "name" : "Scene",
            "nodes" : [
                0,
                1,
                2,
                3,
                4,
                5
            ]
        }
    ],
    "nodes" : [
        {
            "mesh" : 0,
            "name" : "hand",
            "rotation" : [
                0.6806507706642151,
                -0.19161055982112885,
                0.19161058962345123,
                0.6806506514549255
            ],
            "scale" : [
                3.0672295093536377,
                3.0672295093536377,
                3.0672295093536377
            ],
            "translation" : [
                -0.343365877866745,
                -0.004435305017977953,
                -0.17779400944709778
            ]
        },
        {
            "mesh" : 1,
            "name" : "floor",
            "rotation" : [
                0.3882845938205719,
                -0.5909610986709595,
                0.590961217880249,
                0.3882845342159271
            ],
            "scale" : [
                5.466000080108643,
                5.466000080108643,
                5.466000080108643
            ]
        },
        {
            "mesh" : 2,
            "name" : "wall",
            "rotation" : [
                0.3882845938205719,
                -0.5909610986709595,
                0.590961217880249,
                0.3882845342159271
            ],
            "scale" : [
                5.466000080108643,
                5.466000080108643,
                8.389883041381836
            ]
        },
        {
            "mesh" : 3,
            "name" : "men",
            "rotation" : [
                0.6909546852111816,
                -0.1502721905708313,
                0.1502722203731537,
                0.6909545660018921
            ],
            "scale" : [
                0.08224629610776901,
                0.08224629610776901,
                0.08224629610776901
            ],
            "translation" : [
                -0.19649234414100647,
                0.23293794691562653,
                -0.2308688461780548
            ]
        },
        {
            "mesh" : 4,
            "name" : "light_1",
            "translation" : [
                0,
                -0.33759605884552,
                0
            ]
        },
        {
            "mesh" : 5,
            "name" : "light_2",
            "rotation" : [
                0.4259471595287323,
                0,
                -0.5644192099571228,
                0.7071067690849304
            ],
            "scale" : [
                0.714496910572052,
                0.7144967913627625,
                0.7144967913627625
            ],
            "translation" : [
                -1.459026575088501,
                1.9692602157592773,
                -0.33562204241752625
            ]
        }
    ],
    "materials" : [
        {
            "doubleSided" : true,
            "name" : "Material.004",
            "pbrMetallicRoughness" : {
                "baseColorFactor" : [
                    0,
                    0,
                    0,
                    1
                ],
                "metallicFactor" : 0,
                "roughnessFactor" : 0.5
            }
        },
        {
            "doubleSided" : true,
            "name" : "Material.006",
            "pbrMetallicRoughness" : {
                "baseColorFactor" : [
                    0,
                    0,
                    0,
                    1
                ],
                "metallicFactor" : 0.1931818127632141,
                "roughnessFactor" : 0.5795454382896423
            }
        },
        {
            "doubleSided" : true,
            "name" : "Material.005",
            "pbrMetallicRoughness" : {
                "baseColorFactor" : [
                    0,
                    0,
                    0,
                    1
                ],
                "metallicFactor" : 0,
                "roughnessFactor" : 0.5
            }
        },
        {
            "doubleSided" : true,
            "name" : "Material.003",
            "pbrMetallicRoughness" : {
                "baseColorFactor" : [
                    0,
                    0,
                    0,
                    1
                ],
                "metallicFactor" : 0,
                "roughnessFactor" : 0.5
            }
        },
        {
            "doubleSided" : true,
            "name" : "Material.007",
            "pbrMetallicRoughness" : {
                "metallicFactor" : 0,
                "roughnessFactor" : 0.5
            }
        },
        {
            "doubleSided" : true,
            "name" : "Material.008",
            "pbrMetallicRoughness" : {
                "metallicFactor" : 0,
                "roughnessFactor" : 0.5
            }
        }
    ],
    "meshes" : [
        {
            "name" : "handObj",
            "primitives" : [
                {
                    "attributes" : {
                        "POSITION" : 0,
                        "NORMAL" : 1,
                        "TEXCOORD_0" : 2
                    },
                    "indices" : 3,
                    "material" : 0
                }
            ]
        },
        {
            "name" : "Cylinder_Cylinder.002",
            "primitives" : [
                {
                    "attributes" : {
                        "POSITION" : 4,
                        "NORMAL" : 5,
                        "TEXCOORD_0" : 6
                    },
                    "indices" : 7,
                    "material" : 1
                }
            ]
        },
        {
            "name" : "CurlyCurve.001",
            "primitives" : [
                {
                    "attributes" : {
                        "POSITION" : 8,
                        "NORMAL" : 9,
                        "TEXCOORD_0" : 10
                    },
                    "indices" : 11,
                    "material" : 2
                }
            ]
        },
        {
            "name" : "BASE_BASEmesh",
            "primitives" : [
                {
                    "attributes" : {
                        "POSITION" : 12,
                        "NORMAL" : 13,
                        "TEXCOORD_0" : 14
                    },
                    "indices" : 15,
                    "material" : 3
                }
            ]
        },
        {
            "name" : "Cylinder.001",
            "primitives" : [
                {
                    "attributes" : {
                        "POSITION" : 16,
                        "NORMAL" : 17,
                        "TEXCOORD_0" : 18
                    },
                    "indices" : 19,
                    "material" : 4
                }
            ]
        },
        {
            "name" : "Cylinder.002",
            "primitives" : [
                {
                    "attributes" : {
                        "POSITION" : 20,
                        "NORMAL" : 21,
                        "TEXCOORD_0" : 22
                    },
                    "indices" : 19,
                    "material" : 5
                }
            ]
        }
    ],
    "accessors" : [
        {
            "bufferView" : 0,
            "componentType" : 5126,
            "count" : 982,
            "max" : [
                0.15030045807361603,
                0.1582327038049698,
                0.2740269601345062
            ],
            "min" : [
                -0.125700443983078,
                -0.5866880416870117,
                -0.2128709852695465
            ],
            "type" : "VEC3"
        },
        {
            "bufferView" : 1,
            "componentType" : 5126,
            "count" : 982,
            "type" : "VEC3"
        },
        {
            "bufferView" : 2,
            "componentType" : 5126,
            "count" : 982,
            "type" : "VEC2"
        },
        {
            "bufferView" : 3,
            "componentType" : 5123,
            "count" : 4575,
            "type" : "SCALAR"
        },
        {
            "bufferView" : 4,
            "componentType" : 5126,
            "count" : 1200,
            "max" : [
                1.3144580125808716,
                1.3144580125808716,
                0.04456400126218796
            ],
            "min" : [
                -1.3144580125808716,
                -1.3144580125808716,
                0.007734000217169523
            ],
            "type" : "VEC3"
        },
        {
            "bufferView" : 5,
            "componentType" : 5126,
            "count" : 1200,
            "type" : "VEC3"
        },
        {
            "bufferView" : 6,
            "componentType" : 5126,
            "count" : 1200,
            "type" : "VEC2"
        },
        {
            "bufferView" : 7,
            "componentType" : 5123,
            "count" : 2388,
            "type" : "SCALAR"
        },
        {
            "bufferView" : 8,
            "componentType" : 5126,
            "count" : 17720,
            "max" : [
                1.0413789749145508,
                0.9864820241928101,
                0.019394999369978905
            ],
            "min" : [
                -0.9913780093193054,
                0.16133800148963928,
                -0.5355749726295471
            ],
            "type" : "VEC3"
        },
        {
            "bufferView" : 9,
            "componentType" : 5126,
            "count" : 17720,
            "type" : "VEC3"
        },
        {
            "bufferView" : 10,
            "componentType" : 5126,
            "count" : 17720,
            "type" : "VEC2"
        },
        {
            "bufferView" : 11,
            "componentType" : 5123,
            "count" : 28812,
            "type" : "SCALAR"
        },
        {
            "bufferView" : 12,
            "componentType" : 5126,
            "count" : 31001,
            "max" : [
                2.4849181175231934,
                1.4197559356689453,
                -2.023669958114624
            ],
            "min" : [
                -2.773951292037964,
                -3.0900607109069824,
                -23.317150115966797
            ],
            "type" : "VEC3"
        },
        {
            "bufferView" : 13,
            "componentType" : 5126,
            "count" : 31001,
            "type" : "VEC3"
        },
        {
            "bufferView" : 14,
            "componentType" : 5126,
            "count" : 31001,
            "type" : "VEC2"
        },
        {
            "bufferView" : 15,
            "componentType" : 5123,
            "count" : 159126,
            "type" : "SCALAR"
        },
        {
            "bufferView" : 16,
            "componentType" : 5126,
            "count" : 402,
            "max" : [
                1.5,
                0,
                1.5
            ],
            "min" : [
                -1.5,
                0,
                -1.5
            ],
            "type" : "VEC3"
        },
        {
            "bufferView" : 17,
            "componentType" : 5126,
            "count" : 402,
            "type" : "VEC3"
        },
        {
            "bufferView" : 18,
            "componentType" : 5126,
            "count" : 402,
            "type" : "VEC2"
        },
        {
            "bufferView" : 19,
            "componentType" : 5123,
            "count" : 1188,
            "type" : "SCALAR"
        },
        {
            "bufferView" : 20,
            "componentType" : 5126,
            "count" : 402,
            "max" : [
                1.5,
                0,
                1.5
            ],
            "min" : [
                -1.5,
                0,
                -1.5
            ],
            "type" : "VEC3"
        },
        {
            "bufferView" : 21,
            "componentType" : 5126,
            "count" : 402,
            "type" : "VEC3"
        },
        {
            "bufferView" : 22,
            "componentType" : 5126,
            "count" : 402,
            "type" : "VEC2"
        }
    ],
    "bufferViews" : [
        {
            "buffer" : 0,
            "byteLength" : 11784,
            "byteOffset" : 0
        },
        {
            "buffer" : 0,
            "byteLength" : 11784,
            "byteOffset" : 11784
        },
        {
            "buffer" : 0,
            "byteLength" : 7856,
            "byteOffset" : 23568
        },
        {
            "buffer" : 0,
            "byteLength" : 9150,
            "byteOffset" : 31424
        },
        {
            "buffer" : 0,
            "byteLength" : 14400,
            "byteOffset" : 40576
        },
        {
            "buffer" : 0,
            "byteLength" : 14400,
            "byteOffset" : 54976
        },
        {
            "buffer" : 0,
            "byteLength" : 9600,
            "byteOffset" : 69376
        },
        {
            "buffer" : 0,
            "byteLength" : 4776,
            "byteOffset" : 78976
        },
        {
            "buffer" : 0,
            "byteLength" : 212640,
            "byteOffset" : 83752
        },
        {
            "buffer" : 0,
            "byteLength" : 212640,
            "byteOffset" : 296392
        },
        {
            "buffer" : 0,
            "byteLength" : 141760,
            "byteOffset" : 509032
        },
        {
            "buffer" : 0,
            "byteLength" : 57624,
            "byteOffset" : 650792
        },
        {
            "buffer" : 0,
            "byteLength" : 372012,
            "byteOffset" : 708416
        },
        {
            "buffer" : 0,
            "byteLength" : 372012,
            "byteOffset" : 1080428
        },
        {
            "buffer" : 0,
            "byteLength" : 248008,
            "byteOffset" : 1452440
        },
        {
            "buffer" : 0,
            "byteLength" : 318252,
            "byteOffset" : 1700448
        },
        {
            "buffer" : 0,
            "byteLength" : 4824,
            "byteOffset" : 2018700
        },
        {
            "buffer" : 0,
            "byteLength" : 4824,
            "byteOffset" : 2023524
        },
        {
            "buffer" : 0,
            "byteLength" : 3216,
            "byteOffset" : 2028348
        },
        {
            "buffer" : 0,
            "byteLength" : 2376,
            "byteOffset" : 2031564
        },
        {
            "buffer" : 0,
            "byteLength" : 4824,
            "byteOffset" : 2033940
        },
        {
            "buffer" : 0,
            "byteLength" : 4824,
            "byteOffset" : 2038764
        },
        {
            "buffer" : 0,
            "byteLength" : 3216,
            "byteOffset" : 2043588
        }
    ],
    "buffers" : [
        {
            "byteLength" : 2046804,
            "uri" : "data:application/octet-stream;base64,"
        }
    ]
}
