{
    "asset" : {
        "generator" : "Khronos glTF Blender I/O v1.4.40",
        "version" : "2.0"
    },
    "scene" : 0,
    "scenes" : [
        {
            "name" : "Scene",
            "nodes" : [
                0,
                1,
                2,
                3,
                4,
                5,
                6,
                7
            ]
        }
    ],
    "nodes" : [
        {
            "mesh" : 0,
            "name" : "hand",
            "rotation" : [
                0.6806507706642151,
                -0.19161055982112885,
                0.19161058962345123,
                0.6806506514549255
            ],
            "scale" : [
                3.0672295093536377,
                3.0672295093536377,
                3.0672295093536377
            ],
            "translation" : [
                -0.343365877866745,
                -0.004435305017977953,
                -0.17779400944709778
            ]
        },
        {
            "mesh" : 1,
            "name" : "floor",
            "rotation" : [
                0.3882845938205719,
                -0.5909610986709595,
                0.590961217880249,
                0.3882845342159271
            ],
            "scale" : [
                5.466000080108643,
                5.466000080108643,
                5.466000080108643
            ]
        },
        {
            "mesh" : 2,
            "name" : "wall",
            "rotation" : [
                0.3882845938205719,
                -0.5909610986709595,
                0.590961217880249,
                0.3882845342159271
            ],
            "scale" : [
                5.466000080108643,
                5.466000080108643,
                8.389883041381836
            ]
        },
        {
            "mesh" : 3,
            "name" : "men",
            "rotation" : [
                0.6909546852111816,
                -0.1502721905708313,
                0.1502722203731537,
                0.6909545660018921
            ],
            "scale" : [
                0.08224629610776901,
                0.08224629610776901,
                0.08224629610776901
            ],
            "translation" : [
                -0.19649234414100647,
                0.23293794691562653,
                -0.2308688461780548
            ]
        },
        {
            "mesh" : 4,
            "name" : "light_1",
            "translation" : [
                0,
                -0.33759605884552,
                0
            ]
        },
        {
            "mesh" : 5,
            "name" : "light_2",
            "rotation" : [
                0.4259471595287323,
                0,
                -0.5644192099571228,
                0.7071067690849304
            ],
            "scale" : [
                0.714496910572052,
                0.7144967913627625,
                0.7144967913627625
            ],
            "translation" : [
                -1.459026575088501,
                1.9692602157592773,
                -0.33562204241752625
            ]
        },
        {
            "mesh" : 6,
            "name" : "woman",
            "rotation" : [
                0.19328011572360992,
                0.46970462799072266,
                -0.8342840075492859,
                0.21445412933826447
            ],
            "scale" : [
                0.8372023701667786,
                0.837202250957489,
                0.8372021913528442
            ],
            "translation" : [
                -0.5485354661941528,
                0.6811054944992065,
                0.617029070854187
            ]
        },
        {
            "mesh" : 7,
            "name" : "globe",
            "rotation" : [
                0.7071068286895752,
                0,
                0,
                0.7071067094802856
            ],
            "scale" : [
                0.1972467452287674,
                0.1972467452287674,
                0.1972467452287674
            ],
            "translation" : [
                -0.05620243400335312,
                1.6860828399658203,
                -0.2682517170906067
            ]
        }
    ],
    "materials" : [
        {
            "doubleSided" : true,
            "name" : "Material.004",
            "pbrMetallicRoughness" : {
                "baseColorFactor" : [
                    0,
                    0,
                    0,
                    1
                ],
                "metallicFactor" : 0,
                "roughnessFactor" : 0.30000001192092896
            }
        },
        {
            "doubleSided" : true,
            "name" : "Material.006",
            "pbrMetallicRoughness" : {
                "baseColorFactor" : [
                    0,
                    0,
                    0,
                    1
                ],
                "metallicFactor" : 0.1931818127632141,
                "roughnessFactor" : 0.5
            }
        },
        {
            "doubleSided" : true,
            "name" : "Material.005",
            "pbrMetallicRoughness" : {
                "baseColorFactor" : [
                    0,
                    0,
                    0,
                    1
                ],
                "metallicFactor" : 0,
                "roughnessFactor" : 0.30000001192092896
            }
        },
        {
            "doubleSided" : true,
            "name" : "Material.003",
            "pbrMetallicRoughness" : {
                "baseColorFactor" : [
                    0,
                    0,
                    0,
                    1
                ],
                "metallicFactor" : 0,
                "roughnessFactor" : 0.30000001192092896
            }
        },
        {
            "doubleSided" : true,
            "name" : "Material.007",
            "pbrMetallicRoughness" : {
                "metallicFactor" : 0,
                "roughnessFactor" : 0.5
            }
        },
        {
            "doubleSided" : true,
            "name" : "Material.008",
            "pbrMetallicRoughness" : {
                "metallicFactor" : 0,
                "roughnessFactor" : 0.5
            }
        },
        {
            "doubleSided" : true,
            "name" : "Material.001",
            "pbrMetallicRoughness" : {
                "baseColorFactor" : [
                    0,
                    0,
                    0,
                    1
                ],
                "metallicFactor" : 0,
                "roughnessFactor" : 0.30000001192092896
            }
        },
        {
            "doubleSided" : true,
            "name" : "Land",
            "pbrMetallicRoughness" : {
                "baseColorFactor" : [
                    0,
                    0,
                    0,
                    1
                ],
                "metallicFactor" : 0,
                "roughnessFactor" : 0.30000001192092896
            }
        }
    ],
    "meshes" : [
        {
            "name" : "handObj",
            "primitives" : [
                {
                    "attributes" : {
                        "POSITION" : 0,
                        "NORMAL" : 1,
                        "TEXCOORD_0" : 2
                    },
                    "indices" : 3,
                    "material" : 0
                }
            ]
        },
        {
            "name" : "Cylinder_Cylinder.002",
            "primitives" : [
                {
                    "attributes" : {
                        "POSITION" : 4,
                        "NORMAL" : 5,
                        "TEXCOORD_0" : 6
                    },
                    "indices" : 7,
                    "material" : 1
                }
            ]
        },
        {
            "name" : "CurlyCurve.001",
            "primitives" : [
                {
                    "attributes" : {
                        "POSITION" : 8,
                        "NORMAL" : 9,
                        "TEXCOORD_0" : 10
                    },
                    "indices" : 11,
                    "material" : 2
                }
            ]
        },
        {
            "name" : "BASE_BASEmesh",
            "primitives" : [
                {
                    "attributes" : {
                        "POSITION" : 12,
                        "NORMAL" : 13,
                        "TEXCOORD_0" : 14
                    },
                    "indices" : 15,
                    "material" : 3
                }
            ]
        },
        {
            "name" : "Cylinder.001",
            "primitives" : [
                {
                    "attributes" : {
                        "POSITION" : 16,
                        "NORMAL" : 17,
                        "TEXCOORD_0" : 18
                    },
                    "indices" : 19,
                    "material" : 4
                }
            ]
        },
        {
            "name" : "Cylinder.002",
            "primitives" : [
                {
                    "attributes" : {
                        "POSITION" : 20,
                        "NORMAL" : 21,
                        "TEXCOORD_0" : 22
                    },
                    "indices" : 19,
                    "material" : 5
                }
            ]
        },
        {
            "name" : "Genesis8Female_Shape_Mesh",
            "primitives" : [
                {
                    "attributes" : {
                        "POSITION" : 23,
                        "NORMAL" : 24,
                        "TEXCOORD_0" : 25
                    },
                    "indices" : 26,
                    "material" : 6
                }
            ]
        },
        {
            "name" : "Sphere_sphere",
            "primitives" : [
                {
                    "attributes" : {
                        "POSITION" : 27,
                        "NORMAL" : 28
                    },
                    "indices" : 29,
                    "material" : 7
                }
            ]
        }
    ],
    "accessors" : [
        {
            "bufferView" : 0,
            "componentType" : 5126,
            "count" : 982,
            "max" : [
                0.15030045807361603,
                0.1582327038049698,
                0.2740269601345062
            ],
            "min" : [
                -0.125700443983078,
                -0.5866880416870117,
                -0.2128709852695465
            ],
            "type" : "VEC3"
        },
        {
            "bufferView" : 1,
            "componentType" : 5126,
            "count" : 982,
            "type" : "VEC3"
        },
        {
            "bufferView" : 2,
            "componentType" : 5126,
            "count" : 982,
            "type" : "VEC2"
        },
        {
            "bufferView" : 3,
            "componentType" : 5123,
            "count" : 4575,
            "type" : "SCALAR"
        },
        {
            "bufferView" : 4,
            "componentType" : 5126,
            "count" : 1200,
            "max" : [
                1.3144580125808716,
                1.3144580125808716,
                0.04456400126218796
            ],
            "min" : [
                -1.3144580125808716,
                -1.3144580125808716,
                0.007734000217169523
            ],
            "type" : "VEC3"
        },
        {
            "bufferView" : 5,
            "componentType" : 5126,
            "count" : 1200,
            "type" : "VEC3"
        },
        {
            "bufferView" : 6,
            "componentType" : 5126,
            "count" : 1200,
            "type" : "VEC2"
        },
        {
            "bufferView" : 7,
            "componentType" : 5123,
            "count" : 2388,
            "type" : "SCALAR"
        },
        {
            "bufferView" : 8,
            "componentType" : 5126,
            "count" : 17720,
            "max" : [
                1.0413789749145508,
                0.9864820241928101,
                0.019394999369978905
            ],
            "min" : [
                -0.9913780093193054,
                0.16133800148963928,
                -0.5355749726295471
            ],
            "type" : "VEC3"
        },
        {
            "bufferView" : 9,
            "componentType" : 5126,
            "count" : 17720,
            "type" : "VEC3"
        },
        {
            "bufferView" : 10,
            "componentType" : 5126,
            "count" : 17720,
            "type" : "VEC2"
        },
        {
            "bufferView" : 11,
            "componentType" : 5123,
            "count" : 28812,
            "type" : "SCALAR"
        },
        {
            "bufferView" : 12,
            "componentType" : 5126,
            "count" : 16703,
            "max" : [
                2.484282970428467,
                1.4190596342086792,
                -2.0224599838256836
            ],
            "min" : [
                -2.7750465869903564,
                -3.0900607109069824,
                -23.317262649536133
            ],
            "type" : "VEC3"
        },
        {
            "bufferView" : 13,
            "componentType" : 5126,
            "count" : 16703,
            "type" : "VEC3"
        },
        {
            "bufferView" : 14,
            "componentType" : 5126,
            "count" : 16703,
            "type" : "VEC2"
        },
        {
            "bufferView" : 15,
            "componentType" : 5123,
            "count" : 79563,
            "type" : "SCALAR"
        },
        {
            "bufferView" : 16,
            "componentType" : 5126,
            "count" : 402,
            "max" : [
                1.5,
                0,
                1.5
            ],
            "min" : [
                -1.5,
                0,
                -1.5
            ],
            "type" : "VEC3"
        },
        {
            "bufferView" : 17,
            "componentType" : 5126,
            "count" : 402,
            "type" : "VEC3"
        },
        {
            "bufferView" : 18,
            "componentType" : 5126,
            "count" : 402,
            "type" : "VEC2"
        },
        {
            "bufferView" : 19,
            "componentType" : 5123,
            "count" : 1188,
            "type" : "SCALAR"
        },
        {
            "bufferView" : 20,
            "componentType" : 5126,
            "count" : 402,
            "max" : [
                1.5,
                0,
                1.5
            ],
            "min" : [
                -1.5,
                0,
                -1.5
            ],
            "type" : "VEC3"
        },
        {
            "bufferView" : 21,
            "componentType" : 5126,
            "count" : 402,
            "type" : "VEC3"
        },
        {
            "bufferView" : 22,
            "componentType" : 5126,
            "count" : 402,
            "type" : "VEC2"
        },
        {
            "bufferView" : 23,
            "componentType" : 5126,
            "count" : 5258,
            "max" : [
                0.18820296227931976,
                0.643322765827179,
                -1.055629849433899
            ],
            "min" : [
                -0.2573449909687042,
                -0.1436060070991516,
                -1.835740327835083
            ],
            "type" : "VEC3"
        },
        {
            "bufferView" : 24,
            "componentType" : 5126,
            "count" : 5258,
            "type" : "VEC3"
        },
        {
            "bufferView" : 25,
            "componentType" : 5126,
            "count" : 5258,
            "type" : "VEC2"
        },
        {
            "bufferView" : 26,
            "componentType" : 5123,
            "count" : 27579,
            "type" : "SCALAR"
        },
        {
            "bufferView" : 27,
            "componentType" : 5126,
            "count" : 14441,
            "max" : [
                0.6531732082366943,
                0.6548306941986084,
                0.6255518794059753
            ],
            "min" : [
                -0.6552670001983643,
                -0.6350628733634949,
                -0.6553993225097656
            ],
            "type" : "VEC3"
        },
        {
            "bufferView" : 28,
            "componentType" : 5126,
            "count" : 14441,
            "type" : "VEC3"
        },
        {
            "bufferView" : 29,
            "componentType" : 5123,
            "count" : 40572,
            "type" : "SCALAR"
        }
    ],
    "bufferViews" : [
        {
            "buffer" : 0,
            "byteLength" : 11784,
            "byteOffset" : 0
        },
        {
            "buffer" : 0,
            "byteLength" : 11784,
            "byteOffset" : 11784
        },
        {
            "buffer" : 0,
            "byteLength" : 7856,
            "byteOffset" : 23568
        },
        {
            "buffer" : 0,
            "byteLength" : 9150,
            "byteOffset" : 31424
        },
        {
            "buffer" : 0,
            "byteLength" : 14400,
            "byteOffset" : 40576
        },
        {
            "buffer" : 0,
            "byteLength" : 14400,
            "byteOffset" : 54976
        },
        {
            "buffer" : 0,
            "byteLength" : 9600,
            "byteOffset" : 69376
        },
        {
            "buffer" : 0,
            "byteLength" : 4776,
            "byteOffset" : 78976
        },
        {
            "buffer" : 0,
            "byteLength" : 212640,
            "byteOffset" : 83752
        },
        {
            "buffer" : 0,
            "byteLength" : 212640,
            "byteOffset" : 296392
        },
        {
            "buffer" : 0,
            "byteLength" : 141760,
            "byteOffset" : 509032
        },
        {
            "buffer" : 0,
            "byteLength" : 57624,
            "byteOffset" : 650792
        },
        {
            "buffer" : 0,
            "byteLength" : 200436,
            "byteOffset" : 708416
        },
        {
            "buffer" : 0,
            "byteLength" : 200436,
            "byteOffset" : 908852
        },
        {
            "buffer" : 0,
            "byteLength" : 133624,
            "byteOffset" : 1109288
        },
        {
            "buffer" : 0,
            "byteLength" : 159126,
            "byteOffset" : 1242912
        },
        {
            "buffer" : 0,
            "byteLength" : 4824,
            "byteOffset" : 1402040
        },
        {
            "buffer" : 0,
            "byteLength" : 4824,
            "byteOffset" : 1406864
        },
        {
            "buffer" : 0,
            "byteLength" : 3216,
            "byteOffset" : 1411688
        },
        {
            "buffer" : 0,
            "byteLength" : 2376,
            "byteOffset" : 1414904
        },
        {
            "buffer" : 0,
            "byteLength" : 4824,
            "byteOffset" : 1417280
        },
        {
            "buffer" : 0,
            "byteLength" : 4824,
            "byteOffset" : 1422104
        },
        {
            "buffer" : 0,
            "byteLength" : 3216,
            "byteOffset" : 1426928
        },
        {
            "buffer" : 0,
            "byteLength" : 63096,
            "byteOffset" : 1430144
        },
        {
            "buffer" : 0,
            "byteLength" : 63096,
            "byteOffset" : 1493240
        },
        {
            "buffer" : 0,
            "byteLength" : 42064,
            "byteOffset" : 1556336
        },
        {
            "buffer" : 0,
            "byteLength" : 55158,
            "byteOffset" : 1598400
        },
        {
            "buffer" : 0,
            "byteLength" : 173292,
            "byteOffset" : 1653560
        },
        {
            "buffer" : 0,
            "byteLength" : 173292,
            "byteOffset" : 1826852
        },
        {
            "buffer" : 0,
            "byteLength" : 81144,
            "byteOffset" : 2000144
        }
    ],
    "buffers" : [
        {
            "byteLength" : 2081288,
            "uri" : "data:application/octet-stream;base64,"
        }
    ]
}
