<?xml version="1.0" encoding="UTF-8"?>
<svg width="95px" height="16px" viewBox="0 0 95 16" version="1.1" xmlns="http://www.w3.org/2000/svg" xmlns:xlink="http://www.w3.org/1999/xlink">
    <!-- Generator: Sketch 64 (93537) - https://sketch.com -->
    <title>ENTER</title>
    <desc>Created with Sketch.</desc>
    <g id="Page-1" stroke="none" stroke-width="1" fill="none" fill-rule="evenodd">
        <g id="loading" transform="translate(-674.000000, -398.000000)" fill="#FFFFFF" fill-rule="nonzero">
            <path d="M687.918229,412.999392 C688.87691,412.994936 689.5625,412.965972 689.975,412.9125 C690.425,412.854167 690.65,412.791667 690.65,412.725 L690.65,412.725 L689.65,410.6 L677.3,410.6 L677.3,406.625 L686.65,406.625 L686.65,404.15 L677.3,404.15 L677.3,400.7 L689.55,400.7 L689.55,398.3 L674,398.3 L674,413 L687.918229,412.999392 Z M696.7,413 L696.7,402.775 L696.95,402.775 L697.925,403.95 L706.625,413 L709.8,413 L709.8,398.3 L706.5,398.3 L706.5,408.55 L706.225,408.55 L705.25,407.2 L696.75,398.3 L693.15,398.3 L693.4,400.3 L693.4,413 L696.7,413 Z M722.125,413 L722.125,400.675 L728.65,400.675 L728.65,398.275 L712.3,398.275 L712.3,400.675 L718.8,400.675 L718.825,413 L722.125,413 Z M745.068229,412.999392 C746.02691,412.994936 746.7125,412.965972 747.125,412.9125 C747.575,412.854167 747.8,412.791667 747.8,412.725 L747.8,412.725 L746.8,410.6 L734.45,410.6 L734.45,406.625 L743.8,406.625 L743.8,404.15 L734.45,404.15 L734.45,400.7 L746.7,400.7 L746.7,398.3 L731.15,398.3 L731.15,413 L745.068229,412.999392 Z M766.275,413.25 C766.741667,413.25 767.15,413.220833 767.5,413.1625 C767.85,413.104167 768.1,413.05 768.25,413 L768.25,413 L768.75,410.975 C768.7,410.975 768.525,410.966667 768.225,410.95 C767.925,410.933333 767.541667,410.858333 767.075,410.725 C766.608333,410.591667 766.075,410.35 765.475,410 C765.308333,409.9 765.075,409.733333 764.775,409.5 C764.475,409.266667 764.145833,409.008333 763.7875,408.725 C763.429167,408.441667 763.083333,408.179167 762.75,407.9375 C762.416667,407.695833 762.141667,407.516667 761.925,407.4 C762.775,407.35 763.4625,407.175 763.9875,406.875 C764.5125,406.575 764.916667,406.208333 765.2,405.775 C765.483333,405.341667 765.675,404.9 765.775,404.45 C765.875,404 765.925,403.591667 765.925,403.225 L765.925,403.225 L765.925,402.75 C765.925,402.283333 765.883333,401.791667 765.8,401.275 C765.716667,400.758333 765.529167,400.270833 765.2375,399.8125 C764.945833,399.354167 764.495833,398.983333 763.8875,398.7 C763.279167,398.416667 762.441667,398.275 761.375,398.275 L761.375,398.275 L750.3,398.275 L750.55,400.3 L750.55,413 L753.85,413 L753.85,407.425 L754.625,407.425 C755.941667,407.425 757.0375,407.6 757.9125,407.95 C758.7875,408.3 759.591667,408.85 760.325,409.6 L760.325,409.6 L762.125,411.4 C762.941667,412.216667 763.670833,412.729167 764.3125,412.9375 C764.954167,413.145833 765.608333,413.25 766.275,413.25 Z M757.6,405.15 C757.066667,405.15 756.491667,405.141667 755.875,405.125 C755.258333,405.108333 754.583333,405.075 753.85,405.025 L753.85,405.025 L753.85,400.675 L760.675,400.675 C761.408333,400.675 761.916667,400.858333 762.2,401.225 C762.483333,401.591667 762.625,402.041667 762.625,402.575 L762.625,402.575 L762.625,403.15 C762.625,403.666667 762.479167,404.0875 762.1875,404.4125 C761.895833,404.7375 761.383333,404.941667 760.65,405.025 C760.25,405.058333 759.8,405.0875 759.3,405.1125 C758.8,405.1375 758.233333,405.15 757.6,405.15 Z" id="ENTER"></path>
        </g>
    </g>
</svg>