<?xml version="1.0" encoding="utf-8"?>
<!-- Generator: Adobe Illustrator 23.0.0, SVG Export Plug-In . SVG Version: 6.00 Build 0)  -->
<svg version="1.1" id="Layer_1" xmlns="http://www.w3.org/2000/svg" xmlns:xlink="http://www.w3.org/1999/xlink" x="0px" y="0px"
	 viewBox="0 0 354.8 43.1" style="enable-background:new 0 0 354.8 43.1;" xml:space="preserve">
<style type="text/css">
	.st0{fill:none;stroke:#FFFFFF;stroke-width:8;stroke-miterlimit:10;}
	.st1{fill:none;stroke:#FFFFFF;stroke-width:6.4;stroke-miterlimit:10;}
</style>
<g>
	<g>
		<path class="st0" d="M11.1,5.2h24c3.5,0,6.4,2.9,6.4,6.4v20c0,3.5-2.9,6.4-6.4,6.4h-24c-3.5,0-6.4-2.9-6.4-6.4v-20
			C4.7,8.1,7.5,5.2,11.1,5.2L11.1,5.2z M211.9,5.2h24c3.5,0,6.4,2.9,6.4,6.4v20c0,3.5-2.9,6.4-6.4,6.4h-24c-3.5,0-6.4-2.9-6.4-6.4
			v-20C205.5,8.1,208.3,5.2,211.9,5.2L211.9,5.2z"/>
		<path class="st0" d="M144.7,5.2h-30.4c-3.5,0-6.4,2.9-6.4,6.4v20c0,3.5,2.9,6.4,6.4,6.4h30.4"/>
		<path class="st0" d="M313.5,5.2h30.4c3.5,0,6.4,2.9,6.4,6.4v4c0,3.5-2.9,6.4-6.4,6.4h-30.4l0,0 M258.3,5.2h30.4
			c3.5,0,6.4,2.9,6.4,6.4v4c0,3.5-2.9,6.4-6.4,6.4h-30.4l0,0"/>
		<path class="st1" d="M304.7,38.8c-6.4,0-11.7-1.3-16-4c-6.4-4-14.4-12-26.4-12"/>
		<path class="st0" d="M193.5,5.2h-30.4c-3.5,0-6.4,2.9-6.4,6.4v20c0,3.5,2.9,6.4,6.4,6.4h30.4 M96.7,5.2H62.3
			c-3.5,0-6.4,2.9-6.4,6.4v3.2c0,3.5,2.9,6.4,6.4,6.4h24c3.5,0,6.4,2.9,6.4,6.4v4c0,3.5-2.9,6.4-6.4,6.4H51.9"/>
		<line class="st1" x1="109.5" y1="22" x2="139.1" y2="22"/>
		<path class="st0" d="M313.5,42V1.2 M258.3,42V1.2"/>
	</g>
</g>
</svg>
