<?xml version="1.0" encoding="UTF-8"?>
<svg width="355px" height="2px" viewBox="0 0 355 2" version="1.1" xmlns="http://www.w3.org/2000/svg" xmlns:xlink="http://www.w3.org/1999/xlink">
    <!-- Generator: Sketch 64 (93537) - https://sketch.com -->
    <title>Group</title>
    <desc>Created with Sketch.</desc>
    <g id="Page-1" stroke="none" stroke-width="1" fill="none" fill-rule="evenodd">
        <g id="Desktop-HD-Copy-3" transform="translate(-50.000000, -734.000000)" stroke="#FFFFFF" stroke-width="1.79999989">
            <g id="Group" transform="translate(50.000000, 732.000000)">
                <path d="M0,0 C6.34259331,0 6.34259331,4.19999975 12.6855465,4.19999975 C19.0281398,4.19999975 19.0281398,0 25.3707331,0 C31.7133264,0 31.7133264,4.19999975 38.0555598,4.19999975 C44.3981532,4.19999975 44.3981532,0 50.7407465,0 C57.0822602,0 57.0822602,4.19999975 63.4241339,4.19999975 C69.7660075,4.19999975 69.7660075,0 76.108241,0 C82.4511941,0 82.4511941,4.19999975 88.7937874,4.19999975 C95.1360209,4.19999975 95.1360209,0 101.478254,0 C107.820488,0 107.820488,4.19999975 114.162361,4.19999975 C120.504595,4.19999975 120.504595,0 126.846828,0 C133.189062,0 133.189062,4.19999975 139.531295,4.19999975 C145.873889,4.19999975 145.873889,0 152.216482,0 C158.559435,0 158.559435,4.19999975 164.902748,4.19999975 C171.245341,4.19999975 171.245341,0 177.587935,0 C183.930888,0 183.930888,4.19999975 190.273841,4.19999975 C196.616434,4.19999975 196.616434,0 202.959028,0 C209.301621,0 209.301621,4.19999975 215.644574,4.19999975 C221.987527,4.19999975 221.987527,0 228.33048,0 C234.673793,0 234.673793,4.19999975 241.017106,4.19999975 C247.360419,4.19999975 247.360419,0 253.704092,0 C260.046326,0 260.046326,4.19999975 266.388919,4.19999975 C272.731512,4.19999975 272.731512,0 279.074106,0 C285.417419,0 285.417419,4.19999975 291.760732,4.19999975 C298.104404,4.19999975 298.104404,0 304.447717,0 C310.79139,0 310.79139,4.19999975 317.135063,4.19999975 C323.478736,4.19999975 323.478736,0 329.822049,0 C336.166801,0 336.166801,4.19999975 342.511194,4.19999975 C348.855586,4.19999975 348.855586,0 355.199979,0" id="Stroke-1" opacity="0"></path>
                <line x1="7.08200859e-15" y1="3" x2="355" y2="3" id="Path-5"></line>
            </g>
        </g>
    </g>
</svg>