<?xml version="1.0" encoding="UTF-8"?>
<svg width="356px" height="7px" viewBox="0 0 356 7" version="1.1" xmlns="http://www.w3.org/2000/svg" xmlns:xlink="http://www.w3.org/1999/xlink">
    <!-- Generator: Sketch 64 (93537) - https://sketch.com -->
    <title>Stroke 1</title>
    <desc>Created with Sketch.</desc>
    <g id="Page-1" stroke="none" stroke-width="1" fill="none" fill-rule="evenodd">
        <g id="Desktop-HD-Copy-3" transform="translate(-49.000000, -731.000000)" stroke="#FFFFFF" stroke-width="1.79999989">
            <path d="M49,732 C55.3425933,732 55.3425933,736.2 61.6855465,736.2 C68.0281398,736.2 68.0281398,732 74.3707331,732 C80.7133264,732 80.7133264,736.2 87.0555598,736.2 C93.3981532,736.2 93.3981532,732 99.7407465,732 C106.08226,732 106.08226,736.2 112.424134,736.2 C118.766007,736.2 118.766007,732 125.108241,732 C131.451194,732 131.451194,736.2 137.793787,736.2 C144.136021,736.2 144.136021,732 150.478254,732 C156.820488,732 156.820488,736.2 163.162361,736.2 C169.504595,736.2 169.504595,732 175.846828,732 C182.189062,732 182.189062,736.2 188.531295,736.2 C194.873889,736.2 194.873889,732 201.216482,732 C207.559435,732 207.559435,736.2 213.902748,736.2 C220.245341,736.2 220.245341,732 226.587935,732 C232.930888,732 232.930888,736.2 239.273841,736.2 C245.616434,736.2 245.616434,732 251.959028,732 C258.301621,732 258.301621,736.2 264.644574,736.2 C270.987527,736.2 270.987527,732 277.33048,732 C283.673793,732 283.673793,736.2 290.017106,736.2 C296.360419,736.2 296.360419,732 302.704092,732 C309.046326,732 309.046326,736.2 315.388919,736.2 C321.731512,736.2 321.731512,732 328.074106,732 C334.417419,732 334.417419,736.2 340.760732,736.2 C347.104404,736.2 347.104404,732 353.447717,732 C359.79139,732 359.79139,736.2 366.135063,736.2 C372.478736,736.2 372.478736,732 378.822049,732 C385.166801,732 385.166801,736.2 391.511194,736.2 C397.855586,736.2 397.855586,732 404.199979,732" id="Stroke-1"></path>
        </g>
    </g>
</svg>